<?xml version="1.0" standalone="no"?>
<!DOCTYPE svg PUBLIC "-//W3C//DTD SVG 20010904//EN"
 "http://www.w3.org/TR/2001/REC-SVG-20010904/DTD/svg10.dtd">
<svg version="1.0" xmlns="http://www.w3.org/2000/svg"
 width="157.000000pt" height="157.000000pt" viewBox="0 0 157.000000 157.000000"
 preserveAspectRatio="xMidYMid meet">
<metadata>
Created by potrace 1.14, written by Peter Selinger 2001-2017
</metadata>
<g transform="translate(0.000000,157.000000) scale(0.100000,-0.100000)"
fill="#000000" stroke="none">
<path d="M0 790 l0 -780 785 0 785 0 0 780 0 780 -785 0 -785 0 0 -780z m1558
-2 l-3 -763 -765 0 -765 0 -3 763 -2 762 770 0 770 0 -2 -762z"/>
<path d="M544 1235 c-7 -19 -14 -44 -14 -55 0 -27 23 -70 49 -92 23 -19 30
-82 11 -93 -17 -11 -40 15 -40 44 0 14 -5 33 -10 41 -7 11 -10 -2 -10 -43 0
-38 4 -56 10 -52 6 4 17 2 24 -4 32 -26 66 21 66 90 0 32 -7 46 -35 75 -35 35
-48 85 -24 100 16 10 31 -10 39 -53 7 -37 8 -36 9 15 1 31 -3 51 -8 47 -5 -3
-12 -1 -16 5 -13 21 -36 9 -51 -25z"/>
<path d="M659 1174 c-21 -25 -24 -135 -5 -172 34 -65 76 -20 76 80 0 89 -35
135 -71 92z m41 -91 c0 -71 -8 -102 -21 -81 -10 16 -12 152 -2 161 13 14 23
-19 23 -80z"/>
<path d="M737 1183 c-4 -3 -2 -12 4 -20 7 -8 10 -45 7 -101 l-4 -88 31 5 c16
2 24 6 18 8 -9 3 -13 28 -13 79 0 70 1 74 19 62 14 -8 20 -26 23 -70 5 -68 27
-100 56 -82 9 6 19 20 20 30 4 18 3 18 -12 -1 -13 -17 -17 -18 -26 -5 -5 8
-10 30 -10 48 0 28 3 32 25 32 31 0 37 14 27 59 -11 49 -38 63 -63 32 -14 -17
-19 -19 -19 -8 0 22 -20 32 -32 16 -7 -11 -11 -11 -15 -1 -5 13 -25 16 -36 5z
m143 -60 c0 -14 -6 -23 -15 -23 -15 0 -22 50 -8 63 9 10 23 -14 23 -40z"/>
<path d="M915 1085 l0 -105 28 0 c24 0 26 2 17 19 -11 22 -13 83 -4 130 12 60
24 30 24 -59 0 -79 2 -90 18 -90 15 0 17 9 12 99 -3 55 -9 103 -13 108 -4 4
-17 2 -27 -5 -12 -7 -20 -8 -20 -2 0 5 -8 10 -17 10 -16 0 -18 -12 -18 -105z"/>
<path d="M248 978 c17 -17 17 -309 0 -326 -9 -9 -3 -12 27 -12 30 0 36 3 27
12 -14 14 -17 158 -2 158 18 0 30 -39 30 -100 0 -64 2 -67 56 -74 l31 -3 -5
48 c-4 44 -3 49 16 49 26 0 40 -53 20 -77 -12 -15 -8 -16 35 -11 26 3 47 2 47
-3 0 -15 37 -10 51 7 8 9 13 41 14 74 0 53 -3 60 -33 87 -28 24 -33 35 -30 64
4 47 28 44 44 -6 l12 -40 1 41 c1 33 -3 43 -23 53 -30 17 -42 10 -56 -35 -17
-49 -5 -96 31 -128 25 -22 30 -34 27 -64 -5 -57 -32 -55 -49 5 l-13 48 -5 -40
c-6 -38 -7 -37 -19 35 -29 162 -35 191 -42 183 -3 -4 -15 -57 -24 -118 -22
-133 -34 -168 -37 -110 -1 38 -2 39 -8 10 l-7 -30 -7 25 c-4 14 -7 39 -7 56 0
16 -5 35 -11 41 -8 8 -6 17 10 34 26 28 29 103 5 137 -12 18 -25 22 -67 22
-40 0 -48 -3 -39 -12z m76 -14 c33 -33 14 -144 -25 -144 -10 0 -13 143 -2 153
9 9 9 9 27 -9z m114 -213 c-15 -5 -18 3 -11 29 l7 25 6 -25 c3 -14 2 -27 -2
-29z"/>
<path d="M896 908 c-9 -13 -16 -43 -16 -71 0 -40 5 -52 29 -75 30 -28 34 -38
32 -85 -2 -43 -33 -31 -47 18 l-12 40 -1 -41 c-1 -33 3 -43 24 -54 30 -16 51
-2 64 44 l9 31 1 -37 c1 -21 4 -37 9 -36 4 0 15 -2 25 -7 32 -13 59 25 60 83
1 45 -4 55 -36 91 -40 44 -46 71 -21 92 13 10 17 10 25 -2 5 -8 9 -19 9 -26 0
-6 5 -15 11 -19 9 -5 10 1 5 20 -7 28 8 37 18 10 11 -30 7 -219 -6 -232 -13
-13 -18 -12 89 -15 59 -2 62 -1 56 18 -8 27 -11 157 -2 148 3 -5 19 -46 34
-91 15 -46 31 -80 35 -75 5 4 10 70 12 146 3 117 1 137 -12 137 -13 0 -15 -14
-13 -77 l2 -78 -26 78 -26 79 -91 -3 c-51 -2 -98 1 -106 6 -22 14 -50 -31 -50
-80 0 -35 7 -51 35 -85 35 -42 43 -72 26 -99 -16 -24 -38 -4 -45 40 -5 33 -9
40 -16 29 -7 -11 -10 -8 -10 12 0 18 -13 42 -35 67 -21 23 -35 49 -35 64 0 55
46 40 53 -16 3 -29 4 -29 5 7 1 27 -3 43 -15 52 -24 18 -30 17 -47 -8z m304
-128 c0 -68 -4 -121 -10 -125 -6 -4 -10 13 -11 42 l-1 48 -12 -40 c-7 -23 -19
-41 -29 -43 -14 -3 -17 5 -17 52 0 60 5 69 20 34 7 -17 9 -8 8 37 0 33 -2 51
-5 40 -11 -46 -23 -37 -23 18 0 44 3 57 15 57 8 0 17 -12 21 -27 13 -63 23
-69 23 -15 1 33 5 51 11 47 6 -4 10 -57 10 -125z"/>
<path d="M605 777 c0 -128 2 -143 16 -140 14 4 15 11 8 41 -10 45 -12 148 -2
138 4 -4 12 -43 18 -87 5 -44 15 -81 20 -82 6 -1 15 35 22 81 16 115 21 120
22 22 1 -55 -3 -90 -11 -98 -9 -9 -5 -12 18 -12 l29 0 -3 130 c-3 113 -2 130
12 130 14 0 16 -17 16 -119 0 -126 8 -151 50 -151 28 0 39 45 42 173 3 106 1
117 -14 117 -10 0 -18 -4 -18 -10 0 -5 5 -10 10 -10 17 0 13 -212 -4 -236 -29
-38 -38 -4 -34 130 l3 126 -47 0 c-26 0 -49 -4 -52 -9 -3 -5 -11 -44 -18 -87
-7 -44 -13 -72 -14 -64 -2 8 -8 48 -14 88 -10 64 -14 72 -33 72 -22 0 -22 -3
-22 -143z"/>
<path d="M569 603 c-10 -62 -23 -124 -39 -185 -13 -51 -14 -68 -5 -68 7 0 15
19 19 43 10 60 28 117 38 117 10 0 10 -26 -1 -70 -24 -94 -25 -90 14 -90 20 0
34 4 31 8 -3 5 2 40 10 78 17 82 17 94 4 94 -5 0 -10 -12 -10 -27 -1 -46 -25
-136 -38 -141 -15 -5 -15 -8 3 78 16 74 13 95 -11 86 -11 -4 -12 4 -7 39 3 25
3 45 -1 45 -3 0 -7 -3 -7 -7z"/>
<path d="M650 585 c0 -8 5 -15 10 -15 6 0 10 7 10 15 0 8 -4 15 -10 15 -5 0
-10 -7 -10 -15z"/>
<path d="M1046 591 c-4 -7 -5 -15 -2 -18 9 -9 19 4 14 18 -4 11 -6 11 -12 0z"/>
<path d="M886 555 c-6 -15 -45 -188 -46 -202 0 -9 30 -1 36 9 4 7 3 8 -4 4 -7
-4 -12 -1 -12 8 0 28 30 130 40 136 5 3 6 18 2 35 -7 26 -9 27 -16 10z"/>
<path d="M682 540 c-7 -12 -10 -24 -8 -29 3 -4 -1 -34 -9 -67 -18 -76 -18 -94
0 -94 9 0 12 6 9 15 -10 26 17 145 32 145 8 0 14 5 14 10 0 6 -5 10 -11 10 -6
0 -9 7 -5 15 8 22 -7 18 -22 -5z"/>
<path d="M376 498 c5 -28 1 -38 -25 -62 -20 -20 -31 -39 -31 -58 0 -24 4 -28
29 -28 17 0 31 6 35 16 8 22 8 26 -4 19 -7 -4 -7 2 -1 19 15 39 18 118 4 123
-8 3 -10 -6 -7 -29z m-11 -85 c-4 -10 -10 -26 -12 -35 -6 -19 -23 -25 -23 -8
0 5 5 21 12 35 12 28 34 35 23 8z"/>
<path d="M430 512 c0 -9 -9 -50 -19 -89 -14 -59 -15 -73 -4 -73 7 0 13 9 13
21 0 40 23 109 36 109 10 0 12 -14 7 -65 -5 -61 -5 -65 14 -65 12 0 24 7 27
16 5 14 4 15 -8 5 -23 -19 -29 4 -16 62 13 55 26 77 43 77 7 0 7 -4 -1 -12
-14 -14 -16 -38 -3 -38 13 0 20 46 9 62 -6 10 -13 8 -27 -9 -23 -27 -33 -29
-29 -7 2 11 -5 18 -19 20 -17 3 -23 -1 -23 -14z"/>
<path d="M734 504 c-24 -36 -33 -154 -12 -154 17 0 38 20 38 34 0 6 -5 3 -11
-6 -14 -25 -29 -22 -29 6 0 40 11 56 36 56 22 0 24 -4 24 -45 0 -37 3 -45 19
-45 10 0 22 7 25 16 9 24 7 31 -5 12 -30 -53 -36 13 -8 100 12 37 32 44 23 7
-3 -14 -2 -25 4 -25 15 0 25 51 12 64 -8 8 -18 4 -36 -17 -13 -15 -25 -36 -25
-45 -1 -9 -5 1 -8 22 -7 49 -24 56 -47 20z m36 -8 c0 -25 -12 -46 -26 -46 -17
0 -18 14 -4 41 12 22 30 25 30 5z"/>
<path d="M926 508 c-20 -28 -20 -52 0 -83 12 -19 13 -28 4 -45 -6 -12 -9 -24
-6 -27 7 -8 26 43 26 70 0 12 -7 30 -15 41 -11 14 -12 24 -4 39 9 15 13 17 20
6 4 -7 11 -10 14 -7 8 8 -3 28 -15 28 -5 0 -16 -10 -24 -22z"/>
<path d="M1021 465 c-7 -36 -16 -77 -21 -90 -7 -18 -6 -25 3 -25 8 0 18 28 26
73 7 39 15 80 17 90 3 9 1 17 -4 17 -6 0 -15 -29 -21 -65z"/>
<path d="M1070 504 c0 -32 -18 -114 -31 -136 -7 -13 -5 -18 5 -18 8 0 18 22
26 63 15 70 27 100 39 92 5 -2 1 -38 -9 -80 -12 -53 -14 -75 -6 -75 12 0 42
158 32 168 -3 3 -17 7 -31 8 -21 2 -25 -2 -25 -22z"/>
<path d="M1174 522 c-26 -17 -56 -115 -47 -152 7 -25 38 -26 48 -2 5 14 4 15
-6 5 -33 -32 -38 3 -14 85 10 32 21 52 30 52 8 0 15 5 15 10 0 12 -11 13 -26
2z"/>
<path d="M347 496 c-4 -10 -5 -21 -2 -24 9 -9 17 6 13 25 -3 17 -4 17 -11 -1z"/>
<path d="M1185 487 c-4 -10 -5 -21 -1 -24 10 -10 18 4 13 24 -4 17 -4 17 -12
0z"/>
<path d="M890 370 c0 -11 4 -20 9 -20 5 0 7 9 4 20 -3 11 -7 20 -9 20 -2 0 -4
-9 -4 -20z"/>
<path d="M1187 376 c-4 -10 -5 -21 -2 -24 9 -9 17 6 13 25 -3 17 -4 17 -11 -1z"/>
</g>
</svg>
